<?xml version="1.0" standalone="no"?><!DOCTYPE svg PUBLIC "-//W3C//DTD SVG 1.1//EN" "http://www.w3.org/Graphics/SVG/1.1/DTD/svg11.dtd"><svg class="icon" width="200px" height="200.00px" viewBox="0 0 1024 1024" version="1.1" xmlns="http://www.w3.org/2000/svg"><path fill="#333333" d="M627.712 788.48c11.305 0 20.48-9.155 20.48-20.48s-9.175-20.48-20.48-20.48H218.46c-11.305 0-20.48 9.155-20.48 20.48s9.175 20.48 20.48 20.48h409.252zM832.86 583.68h-614.4c-11.305 0-20.48 9.155-20.48 20.48s9.175 20.48 20.48 20.48h614.4c11.305 0 20.48-9.155 20.48-20.48s-9.175-20.48-20.48-20.48zM832.86 256h-614.4c-11.305 0-20.48 9.155-20.48 20.48s9.175 20.48 20.48 20.48h614.4c11.305 0 20.48-9.155 20.48-20.48S844.165 256 832.86 256zM218.46 460.8h409.252c11.305 0 20.48-9.155 20.48-20.48s-9.175-20.48-20.48-20.48H218.46c-11.305 0-20.48 9.155-20.48 20.48s9.155 20.48 20.48 20.48z"  /></svg>