<?xml version="1.0" standalone="no"?><!DOCTYPE svg PUBLIC "-//W3C//DTD SVG 1.1//EN" "http://www.w3.org/Graphics/SVG/1.1/DTD/svg11.dtd"><svg class="icon" width="200px" height="200.00px" viewBox="0 0 1024 1024" version="1.1" xmlns="http://www.w3.org/2000/svg"><path fill="#333333" d="M832.86 747.52H423.588a20.48 20.48 0 1 0 0 40.96H832.84a20.48 20.48 0 0 0 0.02-40.96z m20.48-143.36a20.48 20.48 0 0 0-20.48-20.48h-614.4a20.48 20.48 0 1 0 0 40.96h614.4a20.48 20.48 0 0 0 20.48-20.48zM832.86 256h-614.4a20.48 20.48 0 1 0 0 40.96h614.4a20.48 20.48 0 1 0 0-40.96z m0 163.84H423.588a20.48 20.48 0 1 0 0 40.96H832.84a20.48 20.48 0 0 0 0.02-40.96z" /></svg>