<?xml version="1.0" standalone="no"?>
<!DOCTYPE svg PUBLIC "-//W3C//DTD SVG 1.1//EN" "http://www.w3.org/Graphics/SVG/1.1/DTD/svg11.dtd">
<svg class="icon" width="200px" height="200.00px" viewBox="0 0 1024 1024" version="1.1" xmlns="http://www.w3.org/2000/svg">
	<path fill="#333333" d="M724.342857 477.028571c38.4-40 61.942857-94.057143 61.942857-153.485714v-11.657143C786.285714 188.914286 685.6 89.142857 561.485714 89.142857H223.314286c-17.257143 0-31.314286 14.057143-31.314286 31.314286v776.114286c0 18.628571 15.085714 33.714286 33.714286 33.714285h364.228571c133.714286 0 242.057143-107.657143 242.057143-240.571428v-12.571429c0-83.428571-42.742857-156.914286-107.657143-200.114286zM301.714286 198.857143h256.8c65.257143 0 118.057143 50.742857 118.057143 113.485714v10.857143c0 62.628571-52.914286 113.485714-118.057143 113.485714H301.714286V198.857143z m418.971428 490.742857c0 71.885714-59.085714 130.171429-132 130.171429H301.714286V547.085714h286.971428c72.914286 0 132 58.285714 132 130.171429v12.342857z" />
</svg>
