<svg t="1613897028820" class="icon" viewBox="0 0 1024 1024" version="1.1" xmlns="http://www.w3.org/2000/svg" p-id="7073" width="200" height="200"><path d="M0 0h1024v1024H0z" fill="#FFFFFF" fill-opacity=".01" p-id="7074"></path><path d="M496.512 32a128 128 0 0 1 127.84 121.6l0.16 6.4-0.032 113.504 264.256 264.256a32 32 0 0 1-8.16 51.2l-144.064 72.96-269.12 269.12a64 64 0 0 1-90.496 0l-294.144-294.176a64 64 0 0 1 0-90.496l286.016-286.08-0.192-2.048-0.064-2.08V160a128 128 0 0 1 128-128z m-6.464 197.568L128 591.616l294.144 294.144 276.32-276.32 113.792-57.632-187.776-187.776V416a32 32 0 0 1-28.256 31.776l-3.712 0.224a32 32 0 0 1-31.808-28.256L560.512 416l-0.032-115.968-70.432-70.464z m402.016 395.936l1.792 2.24 5.472 8.416c30.112 46.752 45.184 80.032 45.184 99.84a64 64 0 1 1-128 0c0-20.96 16.864-57.024 50.624-108.224a16 16 0 0 1 24.928-2.24zM496.512 96a64 64 0 0 0-63.84 59.2l-0.16 4.8-0.032 36.576 34.944-34.88a32 32 0 0 1 45.248 0l47.808 47.808V160a64 64 0 0 0-59.2-63.84L496.48 96z" fill="#000000" p-id="7075"></path></svg>