<?xml version="1.0" standalone="no"?><!DOCTYPE svg PUBLIC "-//W3C//DTD SVG 1.1//EN" "http://www.w3.org/Graphics/SVG/1.1/DTD/svg11.dtd"><svg class="icon" width="200px" height="200.00px" viewBox="0 0 1024 1024" version="1.1" xmlns="http://www.w3.org/2000/svg"><path fill="#333333" d="M219.428571 949.714286l9.714286-48.571429q3.428571-1.142857 46.571429-12.285714t63.714286-21.428571q16-20 23.428571-57.714286 0.571429-4 35.428571-165.142857t65.142857-310.571429 29.714286-169.428571l0-14.285714q-13.714286-7.428571-31.142857-10.571429t-39.714286-4.571429-33.142857-3.142857l10.857143-58.857143q18.857143 1.142857 68.571429 3.714286t85.428571 4 68.857143 1.428571q27.428571 0 56.285714-1.428571t69.142857-4 56.285714-3.714286q-2.857143 22.285714-10.857143 50.857143-17.142857 5.714286-58 16.285714t-62 19.142857q-4.571429 10.857143-8 24.285714t-5.142857 22.857143-4.285714 26-3.714286 24q-15.428571 84.571429-50 239.714286t-44.285714 203.142857q-1.142857 5.142857-7.428571 33.142857t-11.428571 51.428571-9.142857 47.714286-3.428571 32.857143l0.571429 10.285714q9.714286 2.285714 105.714286 17.714286-1.714286 25.142857-9.142857 56.571429-6.285714 0-18.571429 0.857143t-18.571429 0.857143q-16.571429 0-49.714286-5.714286t-49.142857-5.714286q-78.857143-1.142857-117.714286-1.142857-29.142857 0-81.714286 5.142857t-69.142857 6.285714z" /></svg>