<?xml version="1.0" standalone="no"?><!DOCTYPE svg PUBLIC "-//W3C//DTD SVG 1.1//EN" "http://www.w3.org/Graphics/SVG/1.1/DTD/svg11.dtd"><svg class="icon" width="200px" height="200.00px" viewBox="0 0 1024 1024" version="1.1" xmlns="http://www.w3.org/2000/svg"><path fill="#333333" d="M740.43392 788.48c11.30496 0 20.48-9.15456 20.48-20.48s-9.17504-20.48-20.48-20.48L331.18208 747.52c-11.30496 0-20.48 9.15456-20.48 20.48s9.17504 20.48 20.48 20.48L740.43392 788.48zM863.49824 604.16c0-11.32544-9.17504-20.48-20.48-20.48l-614.4 0c-11.30496 0-20.48 9.15456-20.48 20.48s9.17504 20.48 20.48 20.48l614.4 0C854.3232 624.64 863.49824 615.48544 863.49824 604.16zM208.13824 276.48c0 11.32544 9.17504 20.48 20.48 20.48l614.4 0c11.30496 0 20.48-9.15456 20.48-20.48s-9.17504-20.48-20.48-20.48l-614.4 0C217.2928 256 208.13824 265.15456 208.13824 276.48zM740.43392 460.8c11.30496 0 20.48-9.15456 20.48-20.48s-9.17504-20.48-20.48-20.48L331.18208 419.84c-11.30496 0-20.48 9.15456-20.48 20.48s9.17504 20.48 20.48 20.48L740.43392 460.8z" /></svg>